<svg width="120" height="102" viewBox="0 0 120 102" fill="none" xmlns="http://www.w3.org/2000/svg">
<path d="M41.75 30.1824V21.7824C41.75 13.3824 48.45 6.48242 56.95 6.48242C65.25 6.48242 72.15 13.2824 72.15 21.7824V30.1824" stroke="#C7D2DD" stroke-width="1.8941" stroke-miterlimit="10" stroke-linecap="round" stroke-linejoin="round"/>
<path d="M93.75 92.582C94.15 92.382 94.25 92.182 94.65 92.082" stroke="#FF78B7" stroke-width="0.6123" stroke-linecap="round" stroke-linejoin="round"/>
<path d="M11.25 100.582H118.55" stroke="#B1B9CC" stroke-width="2" stroke-miterlimit="10" stroke-linecap="round" stroke-linejoin="round"/>
<path d="M1.4502 100.582H5.8502" stroke="#B1B9CC" stroke-width="2" stroke-miterlimit="10" stroke-linecap="round" stroke-linejoin="round"/>
<path d="M101.35 14.2822H16.1504V99.6822H101.35V14.2822Z" fill="white"/>
<path d="M101.551 14.2822H39.8506V99.6822H101.451V14.2822H101.551Z" fill="#E6ECF5"/>
<path d="M27.9504 14.2822H16.1504V99.6822H27.9504V14.2822Z" fill="url(#paint0_linear_1827_36339)"/>
<path d="M39.8504 99.682H16.1504V99.482L28.1504 87.582L39.8504 99.682Z" fill="#E6ECF5"/>
<path d="M54.7504 33.282C56.4504 33.282 57.8504 31.882 57.8504 30.182C57.8504 28.482 56.4504 27.082 54.7504 27.082C53.0504 27.082 51.6504 28.482 51.6504 30.182C51.6504 31.882 53.0504 33.282 54.7504 33.282Z" fill="#C7D2DD"/>
<path d="M85.1498 33.282C86.8498 33.282 88.2498 31.882 88.2498 30.182C88.2498 28.482 86.8498 27.082 85.1498 27.082C83.4498 27.082 82.0498 28.482 82.0498 30.182C82.1498 31.882 83.4498 33.282 85.1498 33.282Z" fill="#C7D2DD"/>
<path d="M54.75 30.1824V21.7824C54.75 13.3824 61.45 6.48242 69.95 6.48242C78.25 6.48242 85.15 13.2824 85.15 21.7824V30.1824" stroke="#C7D2DD" stroke-width="1.8941" stroke-miterlimit="10" stroke-linecap="round" stroke-linejoin="round"/>
<path d="M94.8439 3.04134C97.0034 1.65704 99.5505 0.881836 102.264 0.881836C109.684 0.881836 115.719 6.86201 115.719 14.2818C115.719 21.7017 109.684 27.6819 102.264 27.6819C94.8439 27.6819 88.8083 21.7017 88.8083 14.2818C88.6976 9.57523 91.1339 5.47771 94.8439 3.04134Z" fill="url(#paint1_linear_1827_36339)"/>
<path d="M102.262 20.2822C99.559 20.2822 97.2617 17.8553 97.2617 14.2148C97.2617 10.5744 99.559 8.28223 102.262 8.28223C104.964 8.28223 107.262 10.5744 107.262 14.2148C107.262 17.8553 104.964 20.2822 102.262 20.2822ZM102.262 17.4508C103.208 17.4508 104.154 16.5069 104.154 14.2148C104.289 12.0575 103.208 10.9789 102.262 10.9789C101.316 10.9789 100.37 12.0575 100.37 14.2148C100.37 16.5069 101.316 17.4508 102.262 17.4508Z" fill="white"/>
<path d="M60.3262 57.5818C56.8911 57.5818 54.0056 55.384 52.9064 52.2246C52.6316 51.5378 53.0438 50.851 53.7308 50.5763C54.4178 50.3016 55.1049 50.7136 55.3797 51.4005C56.0667 53.4609 58.1278 54.9719 60.3262 54.9719C62.5247 54.9719 64.5858 53.5983 65.2728 51.4005C65.5476 50.7136 66.2346 50.3016 66.9217 50.5763C67.6087 50.851 68.0209 51.5378 67.7461 52.2246C66.6468 55.5213 63.7614 57.5818 60.3262 57.5818Z" fill="#ADB6C8"/>
<path d="M81.0743 57.5818C77.6392 57.5818 74.7537 55.384 73.6544 52.2246C73.3796 51.5378 73.7918 50.851 74.4789 50.5763C75.1659 50.3016 75.8529 50.7136 76.1277 51.4005C76.8147 53.4609 78.8758 54.9719 81.0743 54.9719C83.2728 54.9719 85.3338 53.5983 86.0209 51.4005C86.2957 50.7136 86.9827 50.3016 87.6697 50.5763C88.3567 50.851 88.7689 51.5378 88.4941 52.2246C87.3949 55.5213 84.5094 57.5818 81.0743 57.5818Z" fill="#ADB6C8"/>
<path d="M70.7687 74.4007C72.5141 74.4007 73.929 72.9862 73.929 71.2414C73.929 69.4965 72.5141 68.082 70.7687 68.082C69.0233 68.082 67.6084 69.4965 67.6084 71.2414C67.6084 72.9862 69.0233 74.4007 70.7687 74.4007Z" fill="#ADB6C8"/>
<path d="M13.2124 4.64967V0H31.1825V4.64967L18.9205 19.4441H31.3939V24.0937H12.5781V19.4441L24.8401 4.64967H13.2124Z" fill="url(#paint2_linear_1827_36339)"/>
<path d="M28.0112 39.5224V36.5635H39.6389V39.5224L31.8166 49.0331H39.8503V51.9919H27.5884V49.0331L35.4107 39.5224H28.0112Z" fill="url(#paint3_linear_1827_36339)"/>
<defs>
<linearGradient id="paint0_linear_1827_36339" x1="22.0243" y1="16.555" x2="22.0243" y2="98.4533" gradientUnits="userSpaceOnUse">
<stop offset="0.00289017" stop-color="#E6ECF5"/>
<stop offset="1" stop-color="#CED7E2"/>
</linearGradient>
<linearGradient id="paint1_linear_1827_36339" x1="102.264" y1="1.81284" x2="102.264" y2="16.8554" gradientUnits="userSpaceOnUse">
<stop stop-color="#B0BACC"/>
<stop offset="1" stop-color="#969EAE"/>
</linearGradient>
<linearGradient id="paint2_linear_1827_36339" x1="21.9875" y1="0.836988" x2="21.9875" y2="14.3606" gradientUnits="userSpaceOnUse">
<stop stop-color="#B0BACC"/>
<stop offset="1" stop-color="#969EAE"/>
</linearGradient>
<linearGradient id="paint3_linear_1827_36339" x1="33.7203" y1="37.0994" x2="33.7203" y2="45.7593" gradientUnits="userSpaceOnUse">
<stop stop-color="#B0BACC"/>
<stop offset="1" stop-color="#969EAE"/>
</linearGradient>
</defs>
</svg>
