<svg width="33" height="32" viewBox="0 0 33 32" fill="none" xmlns="http://www.w3.org/2000/svg">
<g id="corporate_fare">
<path id="Vector" d="M16.6673 9.33333V6.66667C16.6673 5.2 15.4673 4 14.0007 4H6.00065C4.53398 4 3.33398 5.2 3.33398 6.66667V25.3333C3.33398 26.8 4.53398 28 6.00065 28H27.334C28.8007 28 30.0007 26.8 30.0007 25.3333V12C30.0007 10.5333 28.8007 9.33333 27.334 9.33333H16.6673ZM14.0007 25.3333H6.00065V22.6667H14.0007V25.3333ZM14.0007 20H6.00065V17.3333H14.0007V20ZM14.0007 14.6667H6.00065V12H14.0007V14.6667ZM14.0007 9.33333H6.00065V6.66667H14.0007V9.33333ZM27.334 25.3333H16.6673V12H27.334V25.3333ZM24.6673 14.6667H19.334V17.3333H24.6673V14.6667ZM24.6673 20H19.334V22.6667H24.6673V20Z" fill="#E09D37"/>
</g>
</svg>
