<svg width="32" height="32" viewBox="0 0 32 32" fill="none" xmlns="http://www.w3.org/2000/svg">
<g id="star-fill">
<path id="Vector" d="M23.413 27.9999C23.1998 28.0008 22.9895 27.9505 22.7997 27.8533L15.9997 24.2933L9.19968 27.8533C8.97887 27.9694 8.72992 28.0212 8.48112 28.0029C8.23232 27.9845 7.99365 27.8968 7.79226 27.7495C7.59086 27.6023 7.4348 27.4015 7.34184 27.17C7.24887 26.9385 7.22271 26.6856 7.26635 26.4399L8.59968 18.9333L3.10635 13.5999C2.93496 13.4289 2.81338 13.2144 2.75465 12.9795C2.69593 12.7446 2.70228 12.4982 2.77302 12.2666C2.8503 12.0296 2.99245 11.8191 3.18335 11.6588C3.37425 11.4986 3.60625 11.395 3.85302 11.3599L11.453 10.2533L14.7997 3.41328C14.9089 3.18785 15.0793 2.99774 15.2916 2.86471C15.5038 2.73169 15.7492 2.66113 15.9997 2.66113C16.2502 2.66113 16.4956 2.73169 16.7078 2.86471C16.92 2.99774 17.0905 3.18785 17.1997 3.41328L20.5863 10.2399L28.1864 11.3466C28.4331 11.3817 28.6651 11.4852 28.856 11.6455C29.0469 11.8058 29.1891 12.0163 29.2664 12.2533C29.3371 12.4848 29.3434 12.7313 29.2847 12.9662C29.226 13.2011 29.1044 13.4156 28.933 13.5866L23.4397 18.9199L24.773 26.4266C24.8206 26.6766 24.7957 26.935 24.7012 27.1712C24.6067 27.4075 24.4465 27.6118 24.2397 27.7599C23.9982 27.9291 23.7075 28.0135 23.413 27.9999Z" fill="#FFC042"/>
</g>
</svg>
